<?xml version="1.0" encoding="UTF-8"?>
<!DOCTYPE svg PUBLIC "-//W3C//DTD SVG 1.1//EN" "http://www.w3.org/Graphics/SVG/1.1/DTD/svg11.dtd">
<!-- Creator: CorelDRAW -->
<svg xmlns="http://www.w3.org/2000/svg" xml:space="preserve" width="297mm" height="112.028mm" version="1.1" style="shape-rendering:geometricPrecision; text-rendering:geometricPrecision; image-rendering:optimizeQuality; fill-rule:evenodd; clip-rule:evenodd"
viewBox="3300 2600 24400 6000"
 xmlns:xlink="http://www.w3.org/1999/xlink"
 xmlns:xodm="http://www.corel.com/coreldraw/odm/2003">
 <defs>
  <style type="text/css">
   <![CDATA[
    .fil0 {fill:none}
    .fil1 {fill:black}
   ]]>
  </style>
 </defs>
 <g id="Layer_x0020_1">
  <metadata id="CorelCorpID_0Corel-Layer"/>
  <path class="fil1" d="M5449.27 5660.82c636.41,0 1152.32,-515.91 1152.32,-1152.3 0,-636.41 -515.91,-1152.3 -1152.32,-1152.3l-2023.36 0c-35.47,0 -64.4,28.92 -64.4,64.39l0 3227.43c0,35.46 28.93,64.39 64.4,64.39l851.22 0c35.48,0 64.39,-28.93 64.39,-64.39l0 -922.81c0,-35.48 28.94,-64.41 64.4,-64.41l1043.35 0zm-468.01 -543.83c-650.12,0 -297.5,-807.02 0,-805.77 297.5,-1.25 650.11,805.77 0,805.77zm-358.47 -754.82c0,99.86 -62.96,180.81 -140.63,180.81 -77.66,0 -140.63,-80.95 -140.63,-180.81 0,-99.88 62.97,-180.81 140.63,-180.81 77.67,0 140.63,80.93 140.63,180.81zm155.73 -100.5c-77.67,0 -140.64,-80.96 -140.64,-180.81 0,-99.86 62.97,-180.82 140.64,-180.82 77.67,0 140.63,80.96 140.63,180.82 0,99.85 -62.96,180.81 -140.63,180.81zm405.72 0c-77.67,0 -140.61,-80.96 -140.61,-180.81 0,-99.86 62.94,-180.82 140.61,-180.82 77.67,0 140.62,80.96 140.62,180.82 0,99.85 -62.95,180.81 -140.62,180.81zm155.83 100.5c0,-99.88 62.97,-180.81 140.65,-180.81 77.65,0 140.62,80.93 140.62,180.81 0,99.86 -62.97,180.81 -140.62,180.81 -77.68,0 -140.65,-80.95 -140.65,-180.81zm1508.3 -941.56l0 3227.43c0,35.46 28.93,64.39 64.4,64.39l851.21 0c35.47,0 64.41,-28.93 64.41,-64.39l0 -3227.43c0,-35.47 -28.94,-64.39 -64.41,-64.39l-851.21 0c-35.47,0 -64.4,28.92 -64.4,64.39zm2495.44 754.51c-700.66,0 -1268.65,568 -1268.65,1268.66 0,700.65 567.99,1268.65 1268.65,1268.65 346.06,0 659.75,-138.56 888.64,-363.21 18.91,-18.57 45.59,-23.68 70.02,-13.42 24.44,10.25 39.48,32.88 39.48,59.38l0 252.86c0,35.46 28.92,64.39 64.39,64.39l851.23 0c35.46,0 64.39,-28.93 64.39,-64.39l0 -2408.52c0,-35.46 -28.93,-64.4 -64.39,-64.4l-851.23 0c-35.47,0 -64.39,28.94 -64.39,64.4l0 252.85c0,26.51 -15.04,49.14 -39.48,59.4 -24.43,10.25 -51.11,5.13 -70.02,-13.44 -228.89,-224.65 -542.58,-363.21 -888.64,-363.21zm-298.37 1268.66c0,-297.47 290.25,-538.61 648.25,-538.61 358.03,0 648.26,241.14 648.26,538.61 0,297.47 -290.23,538.6 -648.26,538.6 -358,0 -648.25,-241.13 -648.25,-538.6zm2523.3 -1204.26l0 394.78c0,35.47 28.93,64.39 64.41,64.39l188.91 0c35.48,0 64.4,28.94 64.4,64.4l0 43 0 1020.29c0,164.08 22.37,302.82 67.11,416.18 133.15,337.24 420.87,469.87 774.18,469.87 312.27,0 572.06,-91.73 850.83,-207.53 24.54,-10.21 39.69,-32.89 39.69,-59.48l0 -544.17c0,-21.11 -9.18,-39.29 -26.19,-51.82 -17,-12.54 -37.08,-15.94 -57.25,-9.69 -70.45,21.82 -142.34,43.61 -211.9,58.24 -56.69,11.93 -110.39,17.9 -161.11,17.9 -234.28,0 -295.34,-148.54 -295.34,-358l0 -751.79 0 -43c0,-35.46 28.93,-64.4 64.4,-64.4l623 0c35.47,0 64.39,-28.92 64.39,-64.39l0 -394.78c0,-35.46 -28.92,-64.4 -64.39,-64.4l-623 0c-35.47,0 -64.4,-28.93 -64.4,-64.39l0 -690.12c0,-35.47 -28.94,-64.39 -64.4,-64.39l-556.83 0c-27.19,0 -50.37,15.91 -60.12,41.29l-282.81 736.3c-9.74,25.38 -32.91,41.31 -60.11,41.31l-209.06 0c-35.48,0 -64.41,28.94 -64.41,64.4zm2296.31 0c0,521.99 0,859.4 0,1396.98 0,713.03 469.23,1069.39 986.34,1075.93 338.21,4.28 696.93,-141.58 958.25,-432.77 43.35,-48.31 123.16,-8.97 111.26,54.83 -146.7,788.79 -1091.23,751.26 -1859.45,559.06 -40.86,-10.24 -80.03,20.34 -80.03,62.46l0 681.58c0,30.07 19.91,55.44 49.13,62.56 609.82,148.75 1291.9,248.7 1897.48,48.25 866.02,-286.74 979.61,-1083.9 990.19,-1759.98 2.68,-170.82 -1.23,-151.19 -1.23,-327.6 0,-473.77 0,-947.55 0,-1421.34 0,-35.44 -28.89,-64.36 -64.34,-64.39 -283.35,-0.21 -564.42,-1.8 -847.77,-2.02 -35.48,-0.03 -64.43,28.91 -64.43,64.4l0 450.26c0,1309.66 -1095.37,1652.5 -1095.37,825.42 0,-424.54 0,-849.08 0,-1273.63 0,-35.46 -28.93,-64.4 -64.41,-64.4l-851.21 0c-35.46,0 -64.41,28.94 -64.41,64.4zm3300.89 0l0 3223.56c0,35.46 28.94,64.39 64.41,64.39l851.21 0c35.48,0 64.4,-28.93 64.4,-64.39l0 -1067.9c0,-26.5 15.04,-49.13 39.47,-59.38 24.43,-10.26 51.12,-5.15 70.04,13.42 228.88,224.65 542.58,363.21 888.62,363.21 700.67,0 1268.65,-568 1268.65,-1268.65 0,-700.66 -567.98,-1268.66 -1268.65,-1268.66 -346.04,0 -659.74,138.56 -888.62,363.21 -18.92,18.57 -45.61,23.69 -70.04,13.44 -24.43,-10.26 -39.47,-32.89 -39.47,-59.4l0 -252.85c0,-35.46 -28.92,-64.4 -64.4,-64.4l-851.21 0c-35.47,0 -64.41,28.94 -64.41,64.4zm980.02 1204.26c0,-297.47 290.23,-538.61 648.25,-538.61 358,0 648.24,241.14 648.24,538.61 0,297.47 -290.24,538.6 -648.24,538.6 -358.02,0 -648.25,-241.13 -648.25,-538.6zm2512.43 -1204.26c0,521.99 0,859.4 0,1396.98 0,713.03 469.2,1069.39 986.32,1075.93l28.95 0c337.31,-4.24 691.59,-156.75 946.96,-452.82 17.91,-20.77 45.48,-27.87 71.2,-18.31 25.72,9.57 41.95,32.93 41.95,60.36l0 346.38c0,35.46 28.93,64.39 64.4,64.39l847.75 0c35.47,0 64.42,-28.93 64.42,-64.39l0 -404.65 0 -582.57c0,-473.76 0,-947.54 0,-1421.3 0,-35.46 -28.95,-64.4 -64.42,-64.4l-847.75 0c-35.47,0 -64.4,28.94 -64.4,64.4l0 448.21c0,1309.66 -1095.36,1652.5 -1095.36,825.42 0,-424.54 0,-849.08 0,-1273.63 0,-35.46 -28.93,-64.4 -64.39,-64.4l-851.23 0c-35.46,0 -64.4,28.94 -64.4,64.4zm3662.24 4.68c-392.05,239.3 -519.98,788.96 -122.54,1094.47 242.35,186.32 720.45,283.73 1012.07,352.05 59,13.82 88.33,69.33 85.53,121.62 -18.27,340.27 -938.52,-30.95 -1254.8,-148.46 -20.28,-7.53 -40.74,-4.14 -58.1,9.66 -17.38,13.78 -26.82,34.09 -26.82,57.7 0,264.84 0,529.68 0,794.51 0,28.81 14.58,53.45 38.47,65.05 546.83,265.55 1452.8,379.68 1988.17,52.94 392.04,-239.3 519.97,-788.95 122.53,-1094.47 -259.14,-199.24 -702.67,-279.57 -1012.06,-352.05 -59.01,-13.81 -88.34,-69.33 -85.55,-121.62 18.28,-340.29 938.53,30.93 1254.82,148.45 20.27,7.54 40.72,4.13 58.09,-9.65 17.37,-13.77 26.82,-34.09 26.82,-57.7 0,-264.85 0,-529.68 0,-794.53 0,-28.79 -14.56,-53.43 -38.46,-65.03 -546.85,-265.57 -1452.82,-379.69 -1988.17,-52.94z"/>
 </g>
</svg>
